<?xml version="1.0" encoding="utf-8"?>
<!-- Generator: Adobe Illustrator 28.2.0, SVG Export Plug-In . SVG Version: 6.00 Build 0)  -->
<svg version="1.1" id="Capa_1" xmlns="http://www.w3.org/2000/svg" xmlns:xlink="http://www.w3.org/1999/xlink" x="0px" y="0px"
	 viewBox="0 0 60 60" style="enable-background:new 0 0 60 60;" xml:space="preserve">
<style type="text/css">
	.st0{fill:#FFFFFF;}
</style>
<g>
	<path class="st0" d="M30,0C13.5,0,0,13.5,0,30s13.5,30,30,30s30-13.5,30-30S46.5,0,30,0z M30,55.8C15.8,55.8,4.2,44.2,4.2,30
		S15.8,4.2,30,4.2S55.8,15.8,55.8,30S44.2,55.8,30,55.8z"/>
	<polygon class="st0" points="32,43.5 32,11.2 27.8,11.2 27.8,43.4 23.3,38.8 20.3,41.7 29.9,51.6 39.5,42 36.5,39 	"/>
</g>
</svg>
