<?xml version="1.0" encoding="utf-8"?>
<!-- Generator: Adobe Illustrator 28.2.0, SVG Export Plug-In . SVG Version: 6.00 Build 0)  -->
<svg version="1.1" id="Capa_1" xmlns="http://www.w3.org/2000/svg" xmlns:xlink="http://www.w3.org/1999/xlink" x="0px" y="0px"
	 viewBox="0 0 249.4 52" style="enable-background:new 0 0 249.4 52;" xml:space="preserve">
<style type="text/css">
	.st0{fill:#7D8085;}
	.st1{fill:#B8BCBE;}
	.st2{fill:#3F96B4;}
</style>
<g>
	<g>
		<g>
			<g>
				<g>
					<path class="st0" d="M93.7,8.6c-0.6,0.1-1.2,0.3-1.8,0.3c-2.6,0-4.4-1.3-4.4-4c0-2.7,1.7-4.3,4.4-4.3c0.5,0,1.2,0.1,1.8,0.3
						l-0.1,1.4c-0.6-0.3-1.2-0.4-1.7-0.4c-1.7,0-2.7,1.3-2.7,2.9c0,1.6,1,2.9,2.7,2.9c0.6,0,1.4-0.1,1.8-0.3L93.7,8.6z"/>
					<path class="st0" d="M97.5,7.6c1.2,0,1.5-1.1,1.5-2c0-0.9-0.5-1.8-1.5-1.8c-1,0-1.5,0.9-1.5,1.8C96,6.6,96.3,7.6,97.5,7.6
						 M97.5,2.7c1.8,0,3.1,1.2,3.1,3.1c0,1.7-1.1,3.1-3.1,3.1c-1.9,0-3.1-1.4-3.1-3.1C94.4,3.8,95.7,2.7,97.5,2.7"/>
					<path class="st0" d="M101.8,2.8h1.5v0.8h0c0.5-0.7,1.1-0.9,1.9-0.9c1.4,0,2,1,2,2.3v3.7h-1.5V5.5c0-0.7,0-1.7-1-1.7
						c-1.1,0-1.4,1.2-1.4,2v2.9h-1.5V2.8z"/>
					<path class="st0" d="M112.3,4c-0.5-0.2-0.8-0.3-1.4-0.3c-0.4,0-0.9,0.1-0.9,0.7c0,0.9,2.7,0.3,2.7,2.5c0,1.4-1.2,1.9-2.5,1.9
						c-0.6,0-1.2-0.1-1.7-0.3l0.1-1.3c0.5,0.2,1,0.4,1.5,0.4c0.4,0,1-0.1,1-0.7c0-1.2-2.7-0.4-2.7-2.5c0-1.3,1.1-1.8,2.3-1.8
						c0.7,0,1.2,0.1,1.7,0.2L112.3,4z"/>
					<path class="st0" d="M116.6,7.6c1.2,0,1.5-1.1,1.5-2c0-0.9-0.5-1.8-1.5-1.8c-1,0-1.5,0.9-1.5,1.8
						C115.1,6.6,115.4,7.6,116.6,7.6 M116.6,2.7c1.8,0,3.1,1.2,3.1,3.1c0,1.7-1.1,3.1-3.1,3.1c-1.9,0-3.1-1.4-3.1-3.1
						C113.5,3.8,114.8,2.7,116.6,2.7"/>
					<path class="st0" d="M120.9,2.8h1.4v1.3h0c0.1-0.6,0.7-1.5,1.6-1.5c0.1,0,0.3,0,0.5,0v1.5c-0.1-0.1-0.4-0.1-0.7-0.1
						c-1.3,0-1.3,1.6-1.3,2.4v2.2h-1.5V2.8z"/>
					<path class="st0" d="M129,4.1c-0.3-0.1-0.6-0.2-1-0.2c-1,0-1.6,0.8-1.6,1.9c0,1.1,0.5,1.9,1.6,1.9c0.4,0,0.9-0.2,1.2-0.3
						l0.1,1.3c-0.4,0.1-0.9,0.2-1.5,0.2c-1.9,0-2.9-1.3-2.9-3.1c0-1.7,1-3.1,2.9-3.1c0.6,0,1.1,0.1,1.5,0.2L129,4.1z"/>
				</g>
				<path class="st0" d="M130.3,2.8h1.5v5.9h-1.5V2.8z M130.3,0.2h1.5v1.5h-1.5V0.2z"/>
				<g>
					<path class="st0" d="M141,2.2c-0.5-0.2-1.1-0.3-1.6-0.3c-0.6,0-1.3,0.2-1.3,1.1c0,1.4,3.5,0.8,3.5,3.5c0,1.8-1.4,2.4-3,2.4
						c-0.9,0-1.3-0.1-2.1-0.3l0.1-1.4c0.6,0.3,1.2,0.5,1.8,0.5c0.6,0,1.4-0.3,1.4-1c0-1.5-3.5-0.9-3.5-3.5c0-1.8,1.4-2.4,2.8-2.4
						c0.7,0,1.3,0.1,1.9,0.3L141,2.2z"/>
					<path class="st0" d="M145,7.7c0.5,0,0.8-0.2,1.1-0.5c0.3-0.3,0.3-0.8,0.3-1.2h-0.7c-0.7,0-1.7,0.1-1.7,1
						C144.1,7.5,144.5,7.7,145,7.7 M143.2,3.1c0.6-0.3,1.4-0.4,2.1-0.4c1.8,0,2.5,0.7,2.5,2.5v0.8c0,0.6,0,1,0,1.5
						c0,0.4,0,0.9,0.1,1.3h-1.4c-0.1-0.3-0.1-0.7-0.1-0.9h0c-0.4,0.7-1.1,1-1.8,1c-1,0-2.1-0.6-2.1-1.8c0-0.9,0.4-1.4,1-1.7
						c0.6-0.3,1.3-0.3,2-0.3h0.8c0-1-0.4-1.3-1.3-1.3c-0.7,0-1.3,0.3-1.8,0.6L143.2,3.1z"/>
					<path class="st0" d="M149.4,2.8h1.5v0.8h0c0.5-0.7,1.1-0.9,1.9-0.9c1.4,0,2,1,2,2.3v3.7h-1.5V5.5c0-0.7,0-1.7-1-1.7
						c-1.1,0-1.4,1.2-1.4,2v2.9h-1.5V2.8z"/>
				</g>
				<path class="st0" d="M156.4,2.8h1.5v5.9h-1.5V2.8z M156.4,0.2h1.5v1.5h-1.5V0.2z"/>
				<g>
					<path class="st0" d="M160.1,3.9h-1.1V2.8h1.1V1.6l1.5-0.5v1.7h1.4v1.1h-1.4v2.8c0,0.5,0.1,1,0.7,1c0.3,0,0.5-0.1,0.7-0.2l0,1.2
						c-0.3,0.1-0.7,0.1-1.1,0.1c-1.2,0-1.9-0.7-1.9-1.9V3.9z"/>
					<path class="st0" d="M166.1,7.7c0.5,0,0.8-0.2,1.1-0.5c0.3-0.3,0.3-0.8,0.3-1.2h-0.7c-0.7,0-1.7,0.1-1.7,1
						C165.1,7.5,165.5,7.7,166.1,7.7 M164.3,3.1c0.6-0.3,1.4-0.4,2.1-0.4c1.8,0,2.5,0.7,2.5,2.5v0.8c0,0.6,0,1,0,1.5
						c0,0.4,0,0.9,0.1,1.3h-1.4c-0.1-0.3-0.1-0.7-0.1-0.9h0c-0.4,0.7-1.1,1-1.8,1c-1,0-2.1-0.6-2.1-1.8c0-0.9,0.4-1.4,1-1.7
						c0.6-0.3,1.3-0.3,2-0.3h0.8c0-1-0.4-1.3-1.3-1.3c-0.7,0-1.3,0.3-1.8,0.6L164.3,3.1z"/>
					<path class="st0" d="M170.4,2.8h1.4v1.3h0c0.1-0.6,0.7-1.5,1.6-1.5c0.1,0,0.3,0,0.5,0v1.5c-0.1-0.1-0.4-0.1-0.7-0.1
						c-1.2,0-1.2,1.6-1.2,2.4v2.2h-1.5V2.8z"/>
				</g>
				<path class="st0" d="M174.9,2.8h1.5v5.9h-1.5V2.8z M174.9,0.2h1.5v1.5h-1.5V0.2z"/>
				<g>
					<path class="st0" d="M184.1,7.5c1,0,1.4-1.1,1.4-1.9c0-0.8-0.4-1.9-1.4-1.9c-1,0-1.3,1.1-1.3,1.9
						C182.9,6.4,183.1,7.5,184.1,7.5 M185.6,7.9L185.6,7.9c-0.5,0.6-1.1,0.8-1.8,0.8c-1.8,0-2.5-1.5-2.5-3.1c0-1.6,0.7-3.1,2.5-3.1
						c0.8,0,1.3,0.3,1.8,0.8h0V0h1.5v8.6h-1.5V7.9z"/>
					<path class="st0" d="M192.3,5.1c0-0.7-0.4-1.4-1.2-1.4c-0.9,0-1.3,0.6-1.4,1.4H192.3z M193.4,8.3c-0.6,0.3-1.2,0.5-2,0.5
						c-1.9,0-3.1-1.1-3.1-3.1c0-1.7,0.9-3.1,2.7-3.1c2.2,0,2.8,1.5,2.8,3.6h-4.1c0.1,1,0.7,1.5,1.7,1.5c0.7,0,1.4-0.3,2-0.6V8.3z"/>
					<path class="st0" d="M199.9,7.3h0.8c0.7,0,1.7-0.2,1.7-1.1c0-1-0.8-1.2-1.7-1.2h-0.8V7.3z M199.9,3.8h0.7c0.7,0,1.5-0.1,1.5-1
						c0-0.9-0.8-1-1.5-1h-0.6V3.8z M198.3,0.6h2.8c1,0,2.6,0.3,2.6,2.1c0,1-0.6,1.6-1.6,1.8v0c1.1,0.1,1.8,0.8,1.8,1.8
						c0,2-1.8,2.3-2.8,2.3h-2.8V0.6z"/>
					<path class="st0" d="M207.3,7.6c0.5,0,0.8-0.2,1.1-0.5c0.3-0.3,0.3-0.8,0.3-1.2H208c-0.7,0-1.7,0.1-1.7,1
						C206.3,7.4,206.7,7.6,207.3,7.6 M205.5,3c0.6-0.3,1.4-0.4,2.1-0.4c1.8,0,2.5,0.7,2.5,2.5v0.8c0,0.6,0,1,0,1.5
						c0,0.4,0,0.9,0.1,1.3h-1.4c-0.1-0.3-0.1-0.7-0.1-0.9h0c-0.4,0.7-1.1,1-1.8,1c-1,0-2.1-0.6-2.1-1.8c0-0.9,0.4-1.4,1-1.7
						c0.6-0.3,1.3-0.3,2-0.3h0.8c0-1-0.4-1.3-1.3-1.3c-0.7,0-1.3,0.3-1.8,0.6L205.5,3z"/>
					<path class="st0" d="M211.6,2.7h1.4V4h0c0.1-0.6,0.7-1.5,1.6-1.5c0.1,0,0.3,0,0.5,0v1.5c-0.1-0.1-0.4-0.1-0.7-0.1
						c-1.2,0-1.2,1.6-1.2,2.4v2.2h-1.5V2.7z"/>
					<path class="st0" d="M219.7,4c-0.3-0.1-0.6-0.2-1-0.2c-1,0-1.6,0.8-1.6,1.9c0,1.1,0.5,1.9,1.6,1.9c0.4,0,0.9-0.2,1.2-0.3
						l0.1,1.3c-0.4,0.1-0.9,0.2-1.5,0.2c-1.9,0-2.9-1.3-2.9-3.1c0-1.7,1-3.1,2.9-3.1c0.6,0,1.1,0.1,1.5,0.2L219.7,4z"/>
					<path class="st0" d="M224.6,5.1c0-0.7-0.4-1.4-1.3-1.4c-0.9,0-1.3,0.6-1.4,1.4H224.6z M225.7,8.3c-0.6,0.3-1.2,0.5-2,0.5
						c-1.9,0-3.1-1.1-3.1-3.1c0-1.7,0.9-3.1,2.7-3.1c2.2,0,2.8,1.5,2.8,3.6H222c0.1,1,0.7,1.5,1.7,1.5c0.7,0,1.4-0.3,2-0.6V8.3z"/>
				</g>
				<rect x="227.3" class="st0" width="1.5" height="8.6"/>
				<g>
					<path class="st0" d="M233.2,7.5c1.2,0,1.5-1.1,1.5-2c0-0.9-0.5-1.8-1.5-1.8c-1,0-1.5,0.9-1.5,1.8C231.7,6.5,232,7.5,233.2,7.5
						 M233.2,2.6c1.8,0,3.1,1.2,3.1,3.1c0,1.7-1.1,3-3.1,3c-1.9,0-3.1-1.4-3.1-3C230.1,3.7,231.4,2.6,233.2,2.6"/>
					<path class="st0" d="M237.5,2.7h1.5v0.8h0c0.5-0.7,1.1-0.9,1.9-0.9c1.4,0,2,1,2,2.3v3.7h-1.5V5.4c0-0.7,0-1.7-1-1.7
						c-1.1,0-1.4,1.2-1.4,2v2.9h-1.5V2.7z"/>
					<path class="st0" d="M246.6,7.6c0.5,0,0.8-0.2,1.1-0.5c0.3-0.3,0.3-0.8,0.3-1.2h-0.7c-0.7,0-1.7,0.1-1.7,1
						C245.6,7.4,246,7.6,246.6,7.6 M244.8,3c0.6-0.3,1.4-0.4,2.1-0.4c1.8,0,2.5,0.7,2.5,2.5v0.8c0,0.6,0,1,0,1.5
						c0,0.4,0,0.9,0.1,1.3h-1.4C248,8.3,248,7.9,248,7.7h0c-0.4,0.7-1.1,1-1.8,1c-1,0-2.1-0.6-2.1-1.8c0-0.9,0.4-1.4,1-1.7
						c0.6-0.3,1.3-0.3,2-0.3h0.8c0-1-0.4-1.3-1.3-1.3c-0.7,0-1.3,0.3-1.8,0.6L244.8,3z"/>
					<path class="st0" d="M67,7h0.8C68.3,7,69,6.8,69,6.2c0-0.7-0.6-0.8-1.1-0.8H67V7z M67,3.7h0.8c0.5,0,1.1-0.2,1.1-0.8
						c0-0.6-0.5-0.8-1.1-0.8H67V3.7z M64.1,0.7h5c1.4,0,2.8,0.4,2.8,2c0,1.1-0.6,1.7-1.7,2v0c1.1,0.1,1.8,1,1.8,1.8
						c0,2-1.6,2.2-3.3,2.2h-4.6V0.7z"/>
					<path class="st0" d="M56.9,2.9c-0.7-0.2-1.5-0.4-2.4-0.4c-0.5,0-1.3,0-1.3,0.5c0,1,4.2,0.1,4.2,3.1c0,2.1-2.1,2.7-3.9,2.7
						c-1.2,0-2.2-0.1-3.3-0.4V6.4c0.8,0.3,1.8,0.5,2.8,0.5c0.7,0,1.4-0.1,1.4-0.6c0-1.1-4.2-0.1-4.2-3.2c0-2.2,2.3-2.6,4.1-2.6
						c0.9,0,1.8,0.1,2.6,0.3V2.9z"/>
					<path class="st0" d="M44,8.5c-0.6,0.2-1.4,0.3-2.2,0.3c-2.7,0-4.8-1.4-4.8-4.3c0-2.7,2.2-4,4.8-4c0.8,0,1.4,0.1,2.2,0.3v2.1
						c-0.5-0.2-1-0.3-1.5-0.3c-1.3,0-2.3,0.7-2.3,2c0,1.4,0.9,2.1,2.2,2.1c0.6,0,1.1-0.1,1.7-0.3V8.5z"/>
				</g>
			</g>
			<g>
				<g>
					<path class="st1" d="M62.3,33.7c0-1.7-1.3-2-2.7-2H56v4.1h3.9C61.3,35.8,62.3,35.2,62.3,33.7 M63,41c0-1.8-1.1-2.5-2.8-2.5H56
						v4.8h4.1C61.7,43.3,63,42.8,63,41 M63.6,36.7c2.1,0.6,3.2,2.3,3.2,4.5c0,3.6-3,5.1-6.2,5.1h-8.5V28.7h8.3
						c3.4,0,5.6,1.1,5.6,4.4C66,34.8,65.2,36,63.6,36.7 M73,37.7c0-7.9-6.4-14.3-14.3-14.3c-7.9,0-14.3,6.4-14.3,14.3
						S50.8,52,58.7,52C66.6,52,73,45.6,73,37.7"/>
				</g>
				<polygon class="st2" points="39.5,24.9 39.5,34.5 49,34.5 49,40.8 39.5,40.8 39.5,50.3 33.1,50.3 33.1,40.8 23.6,40.8 
					23.6,34.5 33.1,34.5 33.1,24.9 				"/>
				<polygon class="st0" points="21.7,24.9 0,50.3 8.3,50.3 29.9,24.9 				"/>
				<g>
					<path class="st0" d="M92.6,27.2L92.6,27.2L91,31.5h3L92.6,27.2z M91.4,25.1h2.4l4.1,10.4h-2.3l-0.9-2.4h-4.2l-0.9,2.4h-2.2
						L91.4,25.1z"/>
					<g>
						<path class="st0" d="M103.6,31.6c0-1.3-0.5-2.4-1.7-2.4c-1.4,0-1.8,1.3-1.8,2.4c0,1,0.6,2.3,1.7,2.3
							C103.1,34,103.6,32.9,103.6,31.6 M105.6,27.9v6.9c0,2.1-0.8,4.1-4.1,4.1c-0.8,0-1.7-0.1-2.7-0.5l0.2-1.7
							c0.6,0.3,1.6,0.7,2.2,0.7c2.2,0,2.3-1.7,2.3-3h0c-0.4,0.7-1.3,1.2-2.4,1.2c-2.3,0-3.1-1.8-3.1-3.9c0-1.8,1-4,3.2-4
							c1,0,1.8,0.3,2.4,1.2h0v-1H105.6z"/>
						<path class="st0" d="M112.1,31c-0.1-1-0.5-1.8-1.6-1.8c-1.1,0-1.7,0.8-1.8,1.8H112.1z M111.3,26.8h-1.2l-2-2.2h2L111.3,26.8z
							 M113.4,35.1c-0.7,0.4-1.6,0.6-2.6,0.6c-2.5,0-4-1.5-4-4c0-2.2,1.2-4.1,3.6-4.1c2.8,0,3.6,2,3.6,4.6h-5.3
							c0.1,1.2,1,1.9,2.2,1.9c1,0,1.8-0.4,2.5-0.8V35.1z"/>
						<path class="st0" d="M115.1,27.9h1.9v1h0c0.6-0.9,1.5-1.2,2.5-1.2c1.8,0,2.6,1.3,2.6,3v4.8h-2v-4.1c0-0.9,0-2.2-1.3-2.2
							c-1.4,0-1.8,1.6-1.8,2.5v3.8h-2V27.9z"/>
						<path class="st0" d="M128.8,29.5c-0.4-0.2-0.7-0.3-1.4-0.3c-1.2,0-2,1-2,2.4c0,1.4,0.7,2.5,2.1,2.5c0.6,0,1.2-0.2,1.5-0.4
							l0.1,1.7c-0.6,0.2-1.2,0.3-2,0.3c-2.5,0-3.8-1.7-3.8-4.1c0-2.2,1.3-4,3.7-4c0.8,0,1.4,0.1,1.9,0.3L128.8,29.5z"/>
					</g>
					<path class="st0" d="M130,27.9h2v7.7h-2V27.9z M130,24.6h2v1.9h-2V24.6z"/>
					<g>
						<path class="st0" d="M136.4,34.3c0.6,0,1.1-0.3,1.4-0.7c0.3-0.4,0.4-1,0.4-1.6h-0.9c-0.9,0-2.2,0.1-2.2,1.3
							C135.1,34,135.6,34.3,136.4,34.3 M134,28.3c0.8-0.4,1.8-0.6,2.7-0.6c2.3,0,3.3,1,3.3,3.2v1c0,0.8,0,1.4,0,1.9
							c0,0.6,0,1.1,0.1,1.7h-1.8c-0.1-0.4-0.1-0.9-0.1-1.1h0c-0.5,0.8-1.5,1.3-2.4,1.3c-1.4,0-2.7-0.8-2.7-2.3
							c0-1.1,0.6-1.8,1.3-2.2c0.8-0.4,1.7-0.4,2.6-0.4h1.1c0-1.2-0.6-1.7-1.7-1.7c-0.8,0-1.7,0.3-2.4,0.8L134,28.3z"/>
						<path class="st0" d="M91.6,49.1c1.3,0,1.8-1.4,1.8-2.5c0-1.1-0.5-2.4-1.8-2.4c-1.3,0-1.7,1.4-1.7,2.4
							C89.9,47.6,90.2,49.1,91.6,49.1 M93.4,49.6L93.4,49.6c-0.6,0.7-1.4,1-2.4,1c-2.4,0-3.2-1.9-3.2-4c0-2.1,0.9-4,3.2-4
							c1,0,1.7,0.3,2.3,1.1h0v-4.4h2v11.2h-1.9V49.6z"/>
						<path class="st0" d="M101.8,45.9c-0.1-1-0.5-1.8-1.6-1.8c-1.1,0-1.7,0.8-1.8,1.8H101.8z M103.1,50c-0.7,0.4-1.6,0.6-2.6,0.6
							c-2.5,0-4-1.5-4-4c0-2.2,1.2-4.1,3.6-4.1c2.8,0,3.6,2,3.6,4.6h-5.3c0.1,1.2,1,1.9,2.2,1.9c1,0,1.8-0.4,2.5-0.8V50z"/>
						<path class="st0" d="M114.3,42c-0.7-0.3-1.4-0.4-2.1-0.4c-0.7,0-1.6,0.3-1.6,1.4c0,1.8,4.6,1,4.6,4.5c0,2.3-1.8,3.1-3.9,3.1
							c-1.1,0-1.6-0.1-2.7-0.4l0.2-1.9c0.7,0.4,1.5,0.6,2.4,0.6c0.8,0,1.8-0.4,1.8-1.3c0-2-4.6-1.2-4.6-4.6c0-2.3,1.8-3.2,3.6-3.2
							c0.9,0,1.7,0.1,2.5,0.4L114.3,42z"/>
						<path class="st0" d="M119,49.2c0.6,0,1.1-0.3,1.4-0.7c0.3-0.4,0.4-1,0.4-1.6H120c-0.9,0-2.2,0.1-2.2,1.3
							C117.8,48.9,118.3,49.2,119,49.2 M116.7,43.2c0.8-0.4,1.8-0.6,2.7-0.6c2.3,0,3.3,1,3.3,3.2v1c0,0.8,0,1.4,0,1.9
							c0,0.6,0,1.1,0.1,1.7H121c-0.1-0.4-0.1-0.9-0.1-1.1h0c-0.5,0.8-1.5,1.3-2.4,1.3c-1.4,0-2.7-0.8-2.7-2.3c0-1.1,0.6-1.8,1.3-2.2
							c0.8-0.4,1.7-0.4,2.6-0.4h1.1c0-1.2-0.6-1.7-1.7-1.7c-0.8,0-1.7,0.3-2.4,0.8L116.7,43.2z"/>
					</g>
					<rect x="124.2" y="39.3" class="st0" width="2" height="11.2"/>
					<g>
						<path class="st0" d="M134.9,50.4h-1.9v-1h0c-0.6,0.7-1.5,1.2-2.5,1.2c-1.8,0-2.6-1.3-2.6-3v-4.8h2v4.1c0,0.9,0,2.2,1.3,2.2
							c1.4,0,1.8-1.6,1.8-2.5v-3.8h2V50.4z"/>
						<path class="st0" d="M137.2,44.2h-1.5v-1.5h1.5v-1.5l2-0.6v2.2h1.8v1.5h-1.8v3.6c0,0.7,0.2,1.3,0.9,1.3c0.4,0,0.7-0.1,0.9-0.2
							l0.1,1.6c-0.4,0.1-0.9,0.2-1.5,0.2c-1.6,0-2.4-1-2.4-2.5V44.2z"/>
						<path class="st0" d="M147.7,44.9h0.7c1,0,2-0.3,2-1.5s-0.9-1.6-2-1.6h-0.7V44.9z M145.6,40h2.6c2.3,0,4.3,0.7,4.3,3.1
							c0,2.4-1.8,3.3-4,3.3h-0.9v3.9h-2.1V40z"/>
						<path class="st0" d="M157.2,39.6h2l-2,2.2h-1.2L157.2,39.6z M160.5,50.4h-1.9v-1h0c-0.6,0.7-1.5,1.2-2.5,1.2
							c-1.8,0-2.6-1.3-2.6-3v-4.8h2v4.1c0,0.9,0,2.2,1.3,2.2c1.4,0,1.8-1.6,1.8-2.5v-3.8h2V50.4z"/>
						<path class="st0" d="M165.9,49.1c1.3,0,1.7-1.4,1.7-2.5c0-1-0.4-2.4-1.7-2.4c-1.3,0-1.8,1.4-1.8,2.4
							C164.2,47.7,164.6,49.1,165.9,49.1 M162.2,39.3h2v4.5h0c0.6-0.7,1.3-1.2,2.3-1.2c2.4,0,3.2,1.9,3.2,4c0,2.1-0.9,4-3.2,4
							c-0.8,0-1.8-0.3-2.4-1.1h0v0.9h-1.9V39.3z"/>
					</g>
					<rect x="170.9" y="39.3" class="st0" width="2" height="11.2"/>
					<path class="st0" d="M174.6,42.8h2v7.7h-2V42.8z M174.6,39.5h2v1.9h-2V39.5z"/>
					<path class="st0" d="M183.2,44.4c-0.4-0.2-0.7-0.3-1.4-0.3c-1.2,0-2,1-2,2.4c0,1.4,0.7,2.5,2.1,2.5c0.6,0,1.2-0.2,1.5-0.4
						l0.1,1.7c-0.6,0.2-1.2,0.3-2,0.3c-2.5,0-3.8-1.7-3.8-4.1c0-2.2,1.3-4,3.7-4c0.8,0,1.4,0.1,1.9,0.3L183.2,44.4z"/>
					<path class="st0" d="M187.1,49.2c0.6,0,1.1-0.3,1.4-0.7c0.3-0.4,0.4-1,0.4-1.6h-0.9c-0.9,0-2.2,0.1-2.2,1.3
						C185.8,48.9,186.4,49.2,187.1,49.2 M184.8,43.2c0.8-0.4,1.8-0.6,2.7-0.6c2.3,0,3.3,1,3.3,3.2v1c0,0.8,0,1.4,0,1.9
						c0,0.6,0,1.1,0.1,1.7h-1.8c-0.1-0.4-0.1-0.9-0.1-1.1h0c-0.5,0.8-1.5,1.3-2.4,1.3c-1.4,0-2.7-0.8-2.7-2.3c0-1.1,0.6-1.8,1.3-2.2
						c0.8-0.4,1.7-0.4,2.6-0.4h1.1c0-1.2-0.6-1.7-1.7-1.7c-0.8,0-1.7,0.3-2.4,0.8L184.8,43.2z"/>
				</g>
			</g>
		</g>
	</g>
</g>
</svg>
