<?xml version="1.0" encoding="utf-8"?>
<!-- Generator: Adobe Illustrator 28.2.0, SVG Export Plug-In . SVG Version: 6.00 Build 0)  -->
<svg version="1.1" id="Capa_1" xmlns="http://www.w3.org/2000/svg" xmlns:xlink="http://www.w3.org/1999/xlink" x="0px" y="0px"
	 viewBox="0 0 60 60" style="enable-background:new 0 0 60 60;" xml:space="preserve">
<style type="text/css">
	.st0{enable-background:new    ;}
</style>
<g>
	<g id="Grupo_3636_00000067946750382913316590000013637866919428853649_" transform="translate(1156.54 -995.54) rotate(90)">
		<g id="Grupo_2643_00000124880834419158853390000010008221332223945626_" transform="translate(1640.54 885.54)">
			<g id="Grupo_2639_00000084532458424543140710000008677781350522065544_" transform="translate(0 0)">
				<g id="Grupo_2635_00000163752312514434794140000001904679859260243593_" transform="translate(0 0)">
					<g id="Elipse_21_00000087378980650943614100000014620847690117235870_" transform="translate(0 0)">
						<path d="M-585,241c0,16.5-13.5,30-30,30c-16.5,0-30-13.5-30-30s13.5-30,30-30C-598.5,211-585,224.5-585,241z M-640.8,241
							c0,14.2,11.6,25.8,25.8,25.8c14.2,0,25.8-11.6,25.8-25.8s-11.6-25.8-25.8-25.8C-629.2,215.2-640.8,226.8-640.8,241z"/>
					</g>
				</g>
			</g>
		</g>
	</g>
	<g class="st0">
		<path d="M27.1,35.5c0-0.9,0-1.7,0.1-2.4c0.1-0.7,0.3-1.3,0.5-1.9c0.2-0.6,0.5-1.1,0.9-1.6c0.4-0.5,0.8-1,1.4-1.5
			c0.4-0.4,0.8-0.8,1.2-1.1c0.4-0.4,0.7-0.7,1-1.1c0.3-0.4,0.5-0.8,0.6-1.2c0.1-0.4,0.2-0.8,0.2-1.3c0-1.1-0.3-1.9-0.8-2.5
			c-0.5-0.5-1.3-0.8-2.3-0.8c-0.4,0-0.8,0.1-1.2,0.2c-0.4,0.1-0.7,0.3-1,0.6c-0.3,0.3-0.5,0.6-0.7,1c-0.2,0.4-0.3,0.9-0.3,1.5h-5.6
			c0-1.4,0.3-2.5,0.7-3.5c0.5-1,1.1-1.8,1.9-2.5c0.8-0.6,1.7-1.1,2.8-1.4c1.1-0.3,2.2-0.5,3.4-0.5c1.4,0,2.6,0.2,3.6,0.5
			c1.1,0.3,2,0.8,2.7,1.5c0.7,0.6,1.3,1.4,1.7,2.4c0.4,0.9,0.6,2,0.6,3.2c0,0.9-0.1,1.6-0.4,2.3c-0.3,0.7-0.6,1.3-1,1.9
			c-0.4,0.6-0.9,1.2-1.5,1.8c-0.6,0.6-1.2,1.1-1.8,1.7c-0.4,0.3-0.7,0.7-0.9,1c-0.2,0.3-0.4,0.7-0.6,1.1c-0.1,0.4-0.3,0.8-0.3,1.2
			c-0.1,0.4-0.1,0.9-0.1,1.4H27.1z M26.6,41.5c0-0.4,0.1-0.8,0.2-1.2c0.1-0.4,0.4-0.7,0.6-0.9c0.3-0.3,0.6-0.5,1-0.6
			c0.4-0.2,0.8-0.2,1.3-0.2c0.5,0,0.9,0.1,1.3,0.2c0.4,0.2,0.7,0.4,1,0.6c0.3,0.3,0.5,0.6,0.6,0.9c0.1,0.4,0.2,0.8,0.2,1.2
			c0,0.4-0.1,0.8-0.2,1.2c-0.1,0.4-0.4,0.7-0.6,0.9c-0.3,0.3-0.6,0.5-1,0.6c-0.4,0.1-0.8,0.2-1.3,0.2c-0.5,0-0.9-0.1-1.3-0.2
			c-0.4-0.1-0.7-0.4-1-0.6c-0.3-0.3-0.5-0.6-0.6-0.9C26.6,42.3,26.6,41.9,26.6,41.5z"/>
	</g>
</g>
</svg>
