<?xml version="1.0" encoding="utf-8"?>
<!-- Generator: Adobe Illustrator 28.0.0, SVG Export Plug-In . SVG Version: 6.00 Build 0)  -->
<svg version="1.1" id="Capa_1" xmlns="http://www.w3.org/2000/svg" xmlns:xlink="http://www.w3.org/1999/xlink" x="0px" y="0px"
	 width="34px" height="34px" viewBox="0 0 34 34" style="enable-background:new 0 0 34 34;" xml:space="preserve">
<style type="text/css">
	.st0{fill:#B8BCBE;}
</style>
<path class="st0" d="M17,0C7.6,0,0,7.6,0,17s7.6,17,17,17s17-7.6,17-17S26.4,0,17,0z M21.6,28.6l-6-8.7l-7.4,8.7H6.1l8.6-10.1
	l-9-13.1h6.6l6.1,8.8l7.5-8.8H28l-8.6,10.1l9,13.1C28.4,28.6,21.6,28.6,21.6,28.6z M18.3,16.7l7.2,10.4h-3.2l-5.7-8.4l-0.9-1.4
	L8.5,6.9h3l5.9,8.5L18.3,16.7z"/>
</svg>
